<mxfile host="app.diagrams.net" modified="2023-07-14T08:05:07.958Z" agent="Mozilla/5.0 (Windows NT 10.0; Win64; x64) AppleWebKit/537.36 (KHTML, like Gecko) Chrome/114.0.0.0 Safari/537.36" version="21.4.0" etag="xmSG7e_M3HA0Mhrlqe1F" type="github">
  <diagram name="第 1 页" id="Sj_WYt5OKRIJuK22mfJQ">
    <mxGraphModel>
      <root>
        <mxCell id="0" />
        <mxCell id="1" parent="0" />
      </root>
    </mxGraphModel>
  </diagram>
</mxfile>
